Coordinates
version=1
nRows=14
nColumns=24
inDegrees=yes

Units are S.I. units (second, meters, Newtons, ...)
Angles are in degrees.

endheader
time	pelvis_tilt	pelvis_list	pelvis_rotation	pelvis_tx	pelvis_ty	pelvis_tz	hip_flexion_r	hip_adduction_r	hip_rotation_r	knee_angle_r	ankle_angle_r	subtalar_angle_r	mtp_angle_r	hip_flexion_l	hip_adduction_l	hip_rotation_l	knee_angle_l	ankle_angle_l	subtalar_angle_l	mtp_angle_l	lumbar_extension	lumbar_bending	lumbar_rotation
      5.14000000	      8.82722507	      7.95541213	      0.26106126	      1.36414487	      0.72550379	     -0.17633781	     12.32108394	     -5.59481417	      9.00409783	      4.90367537	      9.89677578	     -6.09752037	      0.00000000	    -24.47140025	     12.25781112	      9.16960160	     -7.84824525	     19.50496711	    -14.89752426	      0.00000000	    -22.62424085	    -11.18370429	    -10.07864059
      5.15000000	      8.98158071	      7.72075416	      0.75893603	      1.37784117	      0.72435084	     -0.17626008	     11.42272502	     -5.50831878	     10.55858669	      5.35822512	      8.59548101	     -8.19447079	      0.00000000	    -24.98803360	     11.79544552	      9.35661518	     -9.42972419	     19.51569740	    -14.61717774	      0.00000000	    -22.60167063	    -10.67993953	     -9.98062318
      5.16000000	      9.09993598	      7.32275313	      1.26004824	      1.39162152	      0.72370187	     -0.17610948	     10.62759102	     -5.17889416	     11.85160426	      5.25027701	      6.48971884	    -10.89429087	      0.00000000	    -25.23957933	     11.17599078	      9.28718987	    -11.35205052	     19.22247340	    -14.26164276	      0.00000000	    -22.51477850	     -9.99180363	     -9.84410201
      5.17000000	      9.29023930	      6.77672612	      1.72333495	      1.40538802	      0.72369746	     -0.17583085	      9.87024676	     -4.59196360	     12.82533299	      4.61850264	      3.91311088	    -13.98448709	      0.00000000	    -25.23892641	     10.42214219	      8.84654206	    -13.75946489	     18.61783018	    -13.79463853	      0.00000000	    -22.51229551	     -9.15390827	     -9.62269713
      5.18000000	      9.44758858	      6.09308301	      2.09320259	      1.41905109	      0.72422670	     -0.17538934	      9.30825617	     -3.74811116	     13.49992243	      3.52031972	      1.17626133	    -16.99066025	      0.00000000	    -24.79735088	      9.57033739	      8.00285317	    -16.74009877	     17.61324698	    -13.33728662	      0.00000000	    -22.48072134	     -8.19954901	     -9.28454262
      5.19000000	      9.68326506	      5.27296963	      2.32014626	      1.43255224	      0.72537538	     -0.17476231	      8.82941523	     -2.64921571	     13.84192513	      2.03994700	     -1.22464756	    -19.42838236	      0.00000000	    -24.07038989	      8.61464397	      6.86328295	    -20.18861294	     15.94269851	    -13.07091833	      0.00000000	    -22.55905386	     -7.13101012	     -8.81594647
      5.20000000	      9.92552265	      4.36572819	      2.38367139	      1.44579644	      0.72700864	     -0.17396861	      8.59939061	     -1.33892465	     13.29818076	      0.12127530	     -2.38641810	    -20.01203457	      0.00000000	    -22.98203525	      7.61641082	      5.58105439	    -24.06455110	     13.37555846	    -13.28217695	      0.00000000	    -22.68938966	     -6.01633834	     -8.20240179
      5.21000000	     10.04146486	      3.49679268	      2.26273124	      1.45876939	      0.72878630	     -0.17289989	      8.52390669	     -0.05142669	     13.35540831	     -1.82418980	     -3.38340031	    -20.93467979	      0.00000000	    -21.33327596	      6.58726766	      3.80957804	    -28.42659011	     10.21746206	    -12.90246468	      0.00000000	    -22.72474054	     -5.03173367	     -7.55676606
      5.22000000	     10.31155033	      2.58274980	      1.97683317	      1.47149964	      0.73089263	     -0.17164622	      8.25972068	      1.31140640	     13.35725420	     -3.70050901	     -3.57445645	    -21.24876874	      0.00000000	    -19.60248469	      5.46295519	      2.03994675	    -32.95380109	      6.07667362	    -12.88168005	      0.00000000	    -22.99054488	     -4.04436822	     -6.77380279
      5.23000000	     10.34496021	      1.82235013	      1.61865016	      1.48396523	      0.73281869	     -0.17022150	      8.18983473	      2.50885258	     13.48737721	     -5.45589860	     -3.22978736	    -21.36718201	      0.00000000	    -17.34632801	      4.39648463	      0.37192934	    -37.65330216	      1.04451215	    -12.75725010	      0.00000000	    -23.03869994	     -3.30755100	     -6.05830543
      5.24000000	     10.44171484	      1.20492651	      1.18547728	      1.49618010	      0.73482758	     -0.16865391	      7.93353211	      3.53221173	     13.40820010	     -6.96734414	     -2.25231821	    -20.80593844	      0.00000000	    -15.01610615	      3.37301194	     -1.14702637	    -42.23856733	     -4.85707275	    -12.77224810	      0.00000000	    -23.22839254	     -2.78753194	     -5.37028472
      5.25000000	     10.39794351	      0.67012536	      0.82662933	      1.50819424	      0.73657599	     -0.16700501	      7.56561324	      4.42454442	     13.63366079	     -8.01844493	     -1.33667743	    -20.72924090	      0.00000000	    -12.31986092	      2.24845189	     -2.51550480	    -46.82186579	    -10.84954242	    -12.26750226	      0.00000000	    -23.27719851	     -2.39617679	     -4.83257575
      5.26000000	     10.35176663	      0.26935477	      0.53671261	      1.52001316	      0.73824794	     -0.16533675	      7.01576367	      5.12970531	     13.81245945	     -8.73169282	     -0.23739302	    -20.62563445	      0.00000000	     -9.55024041	      1.16943947	     -3.59142534	    -51.10190260	    -16.71937409	    -11.81638627	      0.00000000	    -23.36175498	     -2.18375109	     -4.41127055
      5.27000000	     10.30267942	     -0.03027114	      0.33508037	      1.53165036	      0.73985020	     -0.16371190	      6.34904383	      5.67439600	     13.70278231	     -9.20531839	      1.20418860	    -20.10500621	      0.00000000	     -6.74490727	      0.14922419	     -4.38637588	    -55.01348641	    -21.76709743	    -11.38622178	      0.00000000	    -23.46831222	     -2.10005577	     -4.08553708
